<?xml version="1.0" encoding="UTF-8"?>
<svg id="Layer_2" data-name="Layer 2" xmlns="http://www.w3.org/2000/svg" viewBox="0 0 5512.92 1110.37">
  <g id="Layer_1-2" data-name="Layer 1">
    <g>
      <path d="m2775.07,1090.52c-104.14,0-208.28-.14-312.43.22-10.15.04-16.81-3.17-23.36-10.71-151.01-173.92-139.26-441.88,26.57-601.13,167.18-160.53,426.32-166.91,601.49-14.8,181.34,157.46,200.84,434.76,43.54,616.06-6.61,7.62-13.35,10.6-23.4,10.57-104.14-.33-208.28-.2-312.43-.21Z" style="stroke-width: 0px;"/>
      <path d="m741.11,1089.73h-221.63c0-6.71,0-12.66,0-18.6,0-158.17.26-316.33-.34-474.49-.07-18.48-2.76-37.55-7.85-55.31-27.8-96.89-135.89-113.01-200.84-83.04-53.16,24.53-77.37,69.21-86.65,123.99-2.35,13.9-2.93,28.23-2.94,42.37-.2,148.53-.12,297.07-.12,445.6,0,6.02,0,12.04,0,19.16H0V21.46h220.27v341.15c3.71-2.9,5.44-3.72,6.39-5.07,55.68-79.26,132.71-115.1,228.76-111.07,106.6,4.47,192.4,46.29,246.87,141.33,28.15,49.12,38.95,103.23,39.12,159.15.55,177.93.2,355.87.19,533.81,0,2.48-.27,4.97-.5,8.97Z" style="stroke-width: 0px;"/>
      <path d="m3961.94,710.09c6.1,90.71,61.84,187.33,168.81,202.26,86.74,12.11,169.08-22.35,198.31-108.49.47-1.38,1.37-2.62,2.68-5.06,67.35,12.7,134.91,25.45,205.12,38.69-4.72,16.88-8.13,32.58-13.48,47.58-29.22,81.97-84.19,141.96-162.19,179.01-111.81,53.11-228.41,61.2-344.86,19.16-147.25-53.15-228.83-164.13-259.16-314.3-18.78-93-10.43-184.75,24.03-273.37,64.16-165.01,212.33-259.27,389.47-248.99,92.81,5.39,175.87,34.87,244.34,99.25,64.38,60.55,98.66,136.4,109.88,223.17,6.02,46.53,4.73,93.01-3.24,141.08h-559.71Zm349.19-142.25c2.35-31.46-15.89-75.1-40.26-97.66-86.32-79.87-228.85-55.23-283.08,49.26-7.74,14.92-13.2,31.02-20.48,48.39h343.81Z" style="stroke-width: 0px;"/>
      <path d="m1591.68,710.55h-560.46c2.57,40.08,14.11,75.67,33.23,109.03,67.36,117.51,216.47,114.31,283.86,57.04,11.84-10.06,22.57-22.07,31.37-34.85,8.79-12.76,14.51-27.61,22.17-42.72,44.04,8.21,88.82,16.52,133.58,24.92,18.44,3.46,36.72,8.14,55.3,10.35,13.89,1.65,14.66,7.1,11.64,19.05-25.91,102.5-88.25,175.5-184.52,216.23-139.68,59.1-278.84,56.42-409.92-24.25-106.71-65.67-163.08-166.87-183.53-288.5-14.65-87.12-6.82-172.76,24.11-255.8,62.65-168.24,213.78-265.7,393.29-254.29,109.44,6.96,203.53,46.26,273.72,132.65,66.78,82.19,88.09,178.44,81.33,282.2-1.02,15.59-3.25,31.1-5.16,48.96Zm-209.96-142.46c0-4.33.44-7.86-.07-11.25-7.02-46.5-28.59-83.78-69.57-108.63-82.67-50.14-218.53-28.23-265.43,93.64-3.15,8.19-5.38,16.74-8.39,26.24h343.46Z" style="stroke-width: 0px;"/>
      <path d="m5276.32,1089.72c-6.83.35-11.22.77-15.61.77-76.7.04-153.4-.18-230.1.27-10.46.06-16.19-3.35-21.7-12.15-38.17-61.02-76.95-121.65-115.55-182.39-2.69-4.23-5.53-8.37-9.52-14.39-3.74,5.32-6.92,9.46-9.71,13.85-38.91,61.15-77.62,122.43-116.9,183.35-3.27,5.06-10.26,10.95-15.57,11-78.22.71-156.45.49-234.67.49-3.02,0-6.04,0-12.26,0,3.96-6.69,6.71-11.64,9.73-16.41,80.36-126.7,160.62-253.47,241.37-379.91,7.15-11.2,8.12-18.94.44-30.89-83.06-129.23-165.37-258.94-247.86-388.53-1.89-2.97-3.6-6.05-6.2-10.42,4-.61,7.14-1.5,10.27-1.5,79.24-.08,158.48.1,237.72-.29,9.02-.05,13.44,3.57,17.86,10.6,39.12,62.24,78.55,124.29,117.93,186.36,2.94,4.64,6.22,9.07,10.36,15.07,4.62-6.69,8.48-11.9,11.95-17.36,38.56-60.79,77.21-121.53,115.38-182.56,5.44-8.7,11.28-12.21,21.81-12.14,75.17.49,150.35.26,225.53.26,3.99,0,7.99,0,14.78,0-3.84,6.43-6.44,11.05-9.28,15.52-80.92,127.59-161.69,255.27-243.08,382.56-7.11,11.12-6.93,18.59.07,29.56,81.23,127.35,161.9,255.06,242.7,382.68,3.12,4.93,6.06,9.99,10.07,16.62Z" style="stroke-width: 0px;"/>
      <path d="m3178.21,454.96v-191.63h133.53c.35-6.95.85-12.3.86-17.65.06-47.14.2-94.29-.12-141.43-.06-8.11,1.88-12.69,10.08-15.94,67.89-26.86,135.58-54.21,203.34-81.38,2.25-.9,4.67-1.39,8.48-2.49v257.87h177.88v191.36c-5.66.34-11.01.94-16.36.95-48.76.07-97.53.39-146.28-.2-11.96-.15-15.48,3.31-15.44,15.42.43,121.66.17,243.32.32,364.98.05,40.32,24.03,64.02,64.66,64.21,45.14.22,90.28.05,138,.05-8.03,63.77-15.9,126.27-23.99,190.55-5.46.29-10.82.83-16.18.83-56.89.06-113.78.18-170.66,0-118.01-.36-205.86-81.35-211.57-198.97-3.51-72.32-1.79-144.9-2.07-217.36-.26-66.91-.05-133.83-.05-200.74,0-5.49,0-10.97,0-18.44h-134.43Z" style="stroke-width: 0px;"/>
      <path d="m1679.03,19.97h219.91v1072.31h-219.91V19.97Z" style="stroke-width: 0px;"/>
      <path d="m2238.1,355.09v736.91h-220.95V355.09h220.95Z" style="stroke-width: 0px;"/>
      <path d="m2120.8,265.71c-49.74-2.21-94.79-22.69-119.03-74.6-23.04-49.35-18.7-97.99,15.15-141.53,46.32-59.58,147.08-66.46,206.64-15.27,53.62,46.09,57.2,137.16,7.06,189.77-28.27,29.66-64.23,40.96-109.83,41.61Z" style="stroke-width: 0px;"/>
      <path d="m5406.56,1090.52c-61.66-.05-105.23-43.78-105.04-105.42.19-61.59,43.82-105.05,105.6-105.17,62.22-.13,106,43.93,105.81,106.48-.18,61.24-44.03,104.16-106.37,104.11Zm-79.94-105.37c-.17,47.38,34.2,83.41,79.82,83.69,46.2.28,82.06-36.48,81.69-83.75-.36-47.09-35.28-82.87-80.93-82.93-45.75-.06-80.42,35.64-80.58,82.99Z" style="stroke-width: 0px;"/>
      <path d="m5432.67,993.47c8.02,14.56,15.74,28.57,23.57,42.78-23.77,6.25-25.97,5.26-36.45-15.61q-10.79-21.51-25.53-22.72v39.84h-24.51v-108c19.55,0,38.75-1.23,57.71.38,15.73,1.34,26.23,13.13,28.34,27.48,2.19,14.93-4.38,25.3-17.39,32.15-1.68.88-3.21,2.05-5.74,3.69Zm-37.74-43.91v25.31c25.34,2.26,36.43-1.31,34.53-11.72-3.83-21.01-21.47-9.82-34.53-13.59Z" style="stroke-width: 0px;"/>
    </g>
  </g>
</svg>