<?xml version="1.0" encoding="UTF-8"?>
<svg id="Layer_2" data-name="Layer 2" xmlns="http://www.w3.org/2000/svg" xmlns:xlink="http://www.w3.org/1999/xlink" viewBox="0 0 509.24 102.81">
  <defs>
    <clipPath id="clippath">
      <rect width="509.24" height="102.81" style="fill: none; stroke-width: 0px;"/>
    </clipPath>
    <clipPath id="clippath-1">
      <rect width="509.24" height="102.81" style="fill: none; stroke-width: 0px;"/>
    </clipPath>
    <clipPath id="clippath-2">
      <rect width="509.24" height="102.81" style="fill: none; stroke-width: 0px;"/>
    </clipPath>
    <clipPath id="clippath-3">
      <rect width="509.24" height="102.81" style="fill: none; stroke-width: 0px;"/>
    </clipPath>
  </defs>
  <g id="Layer_1-2" data-name="Layer 1">
    <g>
      <g style="clip-path: url(#clippath);">
        <path d="m40.77,22.74c-8.63,0-15.93,4.12-20.32,11.29V1.89H0v99.33h20.45v-43.82c0-9.3,5.44-16.2,14.21-16.2,7.97,0,13.41,5.44,13.41,14.21v45.81h20.45v-50.19c0-17.4-11.42-28.28-27.75-28.28" style="fill: #fff; stroke-width: 0px;"/>
        <path d="m112.64,39.2c8.37,0,14.61,5.31,15.14,13.54h-31.87c2.26-8.63,8.76-13.54,16.73-13.54m1.19,45.68c-11.02,0-17.66-8.5-18.59-18.99h51.79c3.98-24.83-11.29-43.16-34.79-43.16s-36.65,17.93-36.65,39.97,15.14,40.1,38.24,40.1c17,0,31.47-9.03,34.53-25.1l-18.99-3.58c-1.99,6.77-7.83,10.76-15.54,10.76" style="fill: #fff; stroke-width: 0px;"/>
      </g>
      <rect x="155.03" y="1.89" width="20.45" height="99.33" style="fill: #fff; stroke-width: 0px;"/>
      <g style="clip-path: url(#clippath-1);">
        <path d="m196.46,0c-7.3,0-12.75,5.18-12.75,12.22s5.44,12.35,12.75,12.35,12.88-5.18,12.88-12.35S204.03,0,196.46,0" style="fill: #fff; stroke-width: 0px;"/>
      </g>
      <rect x="186.37" y="32.8" width="20.45" height="68.42" style="fill: #fff; stroke-width: 0px;"/>
      <g style="clip-path: url(#clippath-2);">
        <path d="m326.51,77.71v-35.59h16.47v-17.79h-16.47V.3l-20.45,8.23v15.8h-12.48v17.79h12.48v38.51c0,12.48,8.23,20.58,20.58,20.58h16.33l2.26-17.79h-13.14c-3.32,0-5.58-2.39-5.58-5.71" style="fill: #fff; stroke-width: 0px;"/>
        <path d="m383.29,39.2c8.37,0,14.61,5.31,15.14,13.54h-31.87c2.26-8.63,8.76-13.54,16.73-13.54m16.73,34.92c-1.99,6.77-7.83,10.76-15.54,10.76-11.02,0-17.66-8.5-18.59-18.99h51.79c3.98-24.83-11.29-43.16-34.79-43.16s-36.65,17.93-36.65,39.97,15.14,40.1,38.24,40.1c17,0,31.47-9.03,34.53-25.1l-18.99-3.59Z" style="fill: #fff; stroke-width: 0px;"/>
      </g>
      <polygon points="487.35 24.33 463.84 24.33 451.36 44.12 438.88 24.33 414.84 24.33 439.28 62.97 415.11 101.22 438.75 101.22 451.1 81.7 463.45 101.22 487.48 101.22 463.18 62.71 487.35 24.33" style="fill: #fff; stroke-width: 0px;"/>
      <g style="clip-path: url(#clippath-3);">
        <path d="m498.16,90.58v-2.45h1.9c.46,0,.83.11,1.1.32.27.22.4.51.4.87s-.13.67-.4.9c-.27.23-.65.35-1.15.35h-1.85Zm4.97.7c.58-.53.87-1.2.87-2,0-.9-.34-1.64-1.02-2.22-.68-.58-1.59-.87-2.72-.87h-4.39v10.24h2.35v-3.89h.55c.3,0,.53.06.7.18.17.12.33.32.5.62l1.55,3.1h2.65l-2.45-4.39c.53-.12,1.01-.37,1.43-.76" style="fill: #fff; stroke-width: 0px;"/>
        <path d="m505.95,95.38c-.63,1.17-1.52,2.08-2.67,2.75-1.15.67-2.44,1-3.87,1s-2.66-.33-3.79-1c-1.13-.66-2.01-1.58-2.65-2.75-.63-1.16-.95-2.48-.95-3.95s.32-2.78.95-3.94c.63-1.16,1.51-2.08,2.65-2.75,1.13-.67,2.41-1,3.84-1s2.71.33,3.85,1c1.13.67,2.01,1.58,2.65,2.75.63,1.16.95,2.48.95,3.94s-.32,2.78-.95,3.95m2.02-8.99c-.85-1.5-2.02-2.66-3.5-3.5-1.48-.83-3.15-1.25-5.02-1.25s-3.54.42-5.02,1.25c-1.48.83-2.64,2-3.49,3.5-.85,1.5-1.27,3.18-1.27,5.04s.42,3.54,1.27,5.02c.85,1.48,2.01,2.65,3.49,3.49,1.48.85,3.15,1.27,5.02,1.27s3.54-.43,5.02-1.27c1.48-.85,2.65-2.01,3.5-3.49.85-1.48,1.27-3.15,1.27-5.01h0c0-1.87-.43-3.55-1.27-5.05" style="fill: #fff; stroke-width: 0px;"/>
        <path d="m256.37,32.8c-22.54,0-40.82,18.28-40.82,40.82,0,10.64,4.08,20.33,10.75,27.6h60.13c6.67-7.27,10.75-16.96,10.75-27.6,0-22.54-18.27-40.82-40.82-40.82" style="fill: #fff; stroke-width: 0px;"/>
      </g>
    </g>
  </g>
</svg>